# This file uses centimeters as units for non-parametric coordinates.
# UVs by headus UVLayout v2.08.00 2012/05/02 06:40:44

mtllib Door.mtl
g default
v -25.500000 0.000000 80.199997
v -25.500000 85.000000 80.199997
v -25.500000 0.000000 77.199997
v -25.500000 85.000000 77.199997
v -18.250000 30.000000 77.199997
v -18.250000 42.000000 77.199997
v -18.250000 57.000000 77.199997
v -18.250000 75.500000 77.199997
v -18.250000 30.000000 76.699997
v -18.250000 42.000000 76.699997
v -18.250000 57.000000 76.699997
v -18.250000 75.500000 76.699997
v -17.250000 31.000000 76.699997
v -17.250000 41.000000 76.699997
v -17.250000 31.000000 76.000000
v -17.250000 41.000000 76.000000
v -15.250000 33.000000 80.199997
v -15.250000 39.000000 80.199997
v -15.250000 60.000000 77.199997
v -15.250000 72.500000 77.199997
v -15.250000 60.000000 76.699997
v -15.250000 72.500000 76.699997
v -15.250000 33.000000 76.000000
v -15.250000 39.000000 76.000000
v -12.250000 63.000000 80.199997
v -12.250000 63.500000 80.199997
v -12.250000 65.000000 80.199997
v -12.250000 65.500000 80.199997
v -12.250000 67.000000 80.199997
v -12.250000 67.500000 80.199997
v -12.250000 69.000000 80.199997
v -12.250000 69.500000 80.199997
v -12.250000 63.000000 77.199997
v -12.250000 63.500000 77.199997
v -12.250000 65.000000 77.199997
v -12.250000 65.500000 77.199997
v -12.250000 67.000000 77.199997
v -12.250000 67.500000 77.199997
v -12.250000 69.000000 77.199997
v -12.250000 69.500000 77.199997
v -0.250000 63.000000 80.199997
v -0.250000 63.500000 80.199997
v -0.250000 65.000000 80.199997
v -0.250000 65.500000 80.199997
v -0.250000 67.000000 80.199997
v -0.250000 67.500000 80.199997
v -0.250000 69.000000 80.199997
v -0.250000 69.500000 80.199997
v -0.250000 63.000000 77.199997
v -0.250000 63.500000 77.199997
v -0.250000 65.000000 77.199997
v -0.250000 65.500000 77.199997
v -0.250000 67.000000 77.199997
v -0.250000 67.500000 77.199997
v -0.250000 69.000000 77.199997
v -0.250000 69.500000 77.199997
v 2.750000 33.000000 80.199997
v 2.750000 39.000000 80.199997
v 2.750000 60.000000 77.199997
v 2.750000 72.500000 77.199997
v 2.750000 60.000000 76.699997
v 2.750000 72.500000 76.699997
v 2.750000 33.000000 76.000000
v 2.750000 39.000000 76.000000
v 4.750000 31.000000 76.699997
v 4.750000 41.000000 76.699997
v 4.750000 31.000000 76.000000
v 4.750000 41.000000 76.000000
v 5.750000 30.000000 77.199997
v 5.750000 42.000000 77.199997
v 5.750000 57.000000 77.199997
v 5.750000 75.500000 77.199997
v 5.750000 30.000000 76.699997
v 5.750000 42.000000 76.699997
v 5.750000 57.000000 76.699997
v 5.750000 75.500000 76.699997
v 13.000000 0.000000 80.199997
v 13.000000 85.000000 80.199997
v 13.000000 0.000000 77.199997
v 13.000000 85.000000 77.199997
# 130 texture coords
vt 0.542237 0.420152
vt 0.541792 0.538666
vt 0.540976 0.684868
vt 0.540111 0.866138
vt 0.540251 0.422303
vt 0.539639 0.536498
vt 0.538821 0.687039
vt 0.538216 0.863936
vt 0.532846 0.428890
vt 0.532375 0.528444
vt 0.529908 0.431826
vt 0.529387 0.525439
vt 0.509457 0.717112
vt 0.509244 0.835686
vt 0.511665 0.714943
vt 0.511233 0.837802
vt 0.337813 0.715979
vt 0.337194 0.834598
vt 0.335636 0.713819
vt 0.335172 0.836700
vt 0.317281 0.427745
vt 0.316768 0.527301
vt 0.320191 0.430712
vt 0.319785 0.524326
vt 0.307970 0.418914
vt 0.307276 0.537414
vt 0.306629 0.683551
vt 0.305930 0.864817
vt 0.309935 0.421082
vt 0.309447 0.535273
vt 0.308756 0.685722
vt 0.307861 0.862619
vt 0.165224 0.678151
vt 0.165284 0.707157
vt 0.049246 0.707399
vt 0.049185 0.678386
vt 0.020163 0.678134
vt 0.020204 0.673299
vt 0.049201 0.673551
vt 0.049140 0.644544
vt 0.165182 0.644303
vt 0.165241 0.673316
vt 0.194263 0.673561
vt 0.194220 0.678395
vt 0.157849 0.914902
vt 0.157893 0.943910
vt 0.041853 0.944090
vt 0.041808 0.915077
vt 0.012787 0.914830
vt 0.012827 0.909993
vt 0.041825 0.910241
vt 0.041779 0.881235
vt 0.157819 0.881055
vt 0.157865 0.910067
vt 0.186886 0.910312
vt 0.186845 0.915147
vt 0.469351 0.043223
vt 0.643449 0.045458
vt 0.642928 0.086068
vt 0.468934 0.083836
vt 0.411228 0.042778
vt 0.411019 0.083392
vt 0.237109 0.042323
vt 0.237019 0.082938
vt 0.179082 0.042216
vt 0.179008 0.082831
vt 0.236265 0.983181
vt 0.235848 0.953930
vt 0.609254 0.955890
vt 0.608526 0.985135
vt 0.638422 0.954994
vt 0.613085 0.132089
vt 0.642230 0.133118
vt 0.612837 0.102699
vt 0.240025 0.130153
vt 0.240577 0.100767
vt 0.210872 0.130886
vt 0.206687 0.952760
vt 0.365396 0.805907
vt 0.481217 0.806792
vt 0.481473 0.746537
vt 0.365580 0.745623
vt 0.481183 0.787862
vt 0.481123 0.783606
vt 0.365739 0.768518
vt 0.481290 0.769940
vt 0.365500 0.782241
vt 0.481483 0.765744
vt 0.337958 0.506118
vt 0.511387 0.507041
vt 0.365418 0.801096
vt 0.481141 0.802091
vt 0.365620 0.750451
vt 0.481479 0.751472
vt 0.511699 0.449634
vt 0.338227 0.448711
vt 0.365547 0.764578
vt 0.365432 0.786731
vt 0.044903 0.754411
vt 0.044750 0.759244
vt 0.015754 0.758320
vt 0.015909 0.753485
vt 0.164659 0.758780
vt 0.164813 0.753946
vt 0.193808 0.754871
vt 0.193655 0.759704
vt 0.162732 0.759402
vt 0.162769 0.788413
vt 0.046727 0.788554
vt 0.046693 0.759544
vt 0.046686 0.754709
vt 0.162727 0.754568
vt 0.046652 0.725700
vt 0.162692 0.725558
vt 0.158400 0.840793
vt 0.158435 0.869803
vt 0.042396 0.869944
vt 0.042359 0.840934
vt 0.042354 0.836100
vt 0.158395 0.835958
vt 0.042318 0.807089
vt 0.158358 0.806947
vt 0.158481 0.841325
vt 0.158326 0.836492
vt 0.187322 0.835567
vt 0.187476 0.840399
vt 0.041704 0.836764
vt 0.041550 0.841596
vt 0.012553 0.840671
vt 0.012708 0.835838
vn 1.000000 0.000000 0.000000
vn 1.000000 0.000000 0.000000
vn 1.000000 0.000000 0.000000
vn 1.000000 0.000000 0.000000
vn 0.000000 1.000000 0.000000
vn 0.000000 1.000000 0.000000
vn 0.000000 1.000000 0.000000
vn 0.000000 1.000000 0.000000
vn -1.000000 0.000000 0.000000
vn -1.000000 0.000000 0.000000
vn -1.000000 0.000000 0.000000
vn -1.000000 0.000000 0.000000
vn 0.000000 -1.000000 0.000000
vn 0.000000 -1.000000 0.000000
vn 0.000000 -1.000000 0.000000
vn 0.000000 -1.000000 0.000000
vn 0.000000 0.000000 -1.000000
vn 0.000000 0.000000 -1.000000
vn 0.000000 0.000000 -1.000000
vn 0.000000 0.000000 -1.000000
vn 0.000000 0.000000 -1.000000
vn 0.000000 0.000000 -1.000000
vn 0.000000 0.000000 -1.000000
vn 0.000000 0.000000 -1.000000
vn 0.000000 0.000000 -1.000000
vn 0.000000 0.000000 -1.000000
vn 0.000000 0.000000 -1.000000
vn 0.000000 0.000000 -1.000000
vn 0.000000 0.000000 -1.000000
vn 0.000000 0.000000 -1.000000
vn 0.000000 0.000000 -1.000000
vn 0.000000 0.000000 -1.000000
vn 0.000000 0.000000 -1.000000
vn 0.000000 0.000000 -1.000000
vn 0.000000 0.000000 -1.000000
vn 0.000000 0.000000 -1.000000
vn 0.000000 0.000000 -1.000000
vn 0.000000 0.000000 -1.000000
vn 0.000000 0.000000 -1.000000
vn 0.000000 0.000000 -1.000000
vn 0.000000 0.000000 -1.000000
vn 0.000000 0.000000 -1.000000
vn 0.000000 0.000000 -1.000000
vn 0.000000 0.000000 -1.000000
vn 0.000000 0.000000 -1.000000
vn 0.000000 0.000000 -1.000000
vn 0.000000 0.000000 -1.000000
vn 0.000000 0.000000 -1.000000
vn 0.000000 0.000000 -1.000000
vn 0.000000 0.000000 -1.000000
vn 0.000000 0.000000 -1.000000
vn 0.000000 0.000000 -1.000000
vn 0.000000 -1.000000 0.000000
vn 0.000000 -1.000000 0.000000
vn 0.000000 -1.000000 0.000000
vn 0.000000 -1.000000 0.000000
vn 1.000000 0.000000 0.000000
vn 1.000000 0.000000 0.000000
vn 1.000000 0.000000 0.000000
vn 1.000000 0.000000 0.000000
vn 0.000000 1.000000 0.000000
vn 0.000000 1.000000 0.000000
vn 0.000000 1.000000 0.000000
vn 0.000000 1.000000 0.000000
vn -1.000000 0.000000 0.000000
vn -1.000000 0.000000 0.000000
vn -1.000000 0.000000 0.000000
vn -1.000000 0.000000 0.000000
vn 0.000000 -1.000000 0.000000
vn 0.000000 -1.000000 0.000000
vn 0.000000 -1.000000 0.000000
vn 0.000000 -1.000000 0.000000
vn 1.000000 0.000000 0.000000
vn 1.000000 0.000000 0.000000
vn 1.000000 0.000000 0.000000
vn 1.000000 0.000000 0.000000
vn 0.000000 1.000000 0.000000
vn 0.000000 1.000000 0.000000
vn 0.000000 1.000000 0.000000
vn 0.000000 1.000000 0.000000
vn -1.000000 0.000000 0.000000
vn -1.000000 0.000000 0.000000
vn -1.000000 0.000000 0.000000
vn -1.000000 0.000000 0.000000
vn 0.000000 -1.000000 0.000000
vn 0.000000 -1.000000 0.000000
vn 0.000000 -1.000000 0.000000
vn 0.000000 -1.000000 0.000000
vn 1.000000 0.000000 0.000000
vn 1.000000 0.000000 0.000000
vn 1.000000 0.000000 0.000000
vn 1.000000 0.000000 0.000000
vn 0.000000 1.000000 0.000000
vn 0.000000 1.000000 0.000000
vn 0.000000 1.000000 0.000000
vn 0.000000 1.000000 0.000000
vn -1.000000 0.000000 0.000000
vn -1.000000 0.000000 0.000000
vn -1.000000 0.000000 0.000000
vn -1.000000 0.000000 0.000000
vn 0.000000 -1.000000 0.000000
vn 0.000000 -1.000000 0.000000
vn 0.000000 -1.000000 0.000000
vn 0.000000 -1.000000 0.000000
vn 1.000000 0.000000 0.000000
vn 1.000000 0.000000 0.000000
vn 1.000000 0.000000 0.000000
vn 1.000000 0.000000 0.000000
vn 0.000000 1.000000 0.000000
vn 0.000000 1.000000 0.000000
vn 0.000000 1.000000 0.000000
vn 0.000000 1.000000 0.000000
vn -1.000000 0.000000 0.000000
vn -1.000000 0.000000 0.000000
vn -1.000000 0.000000 0.000000
vn -1.000000 0.000000 0.000000
vn -1.000000 0.000000 0.000000
vn -1.000000 0.000000 0.000000
vn -1.000000 0.000000 0.000000
vn -1.000000 0.000000 0.000000
vn 0.000000 1.000000 0.000000
vn 0.000000 1.000000 0.000000
vn 0.000000 1.000000 0.000000
vn 0.000000 1.000000 0.000000
vn 1.000000 0.000000 0.000000
vn 1.000000 0.000000 0.000000
vn 1.000000 0.000000 0.000000
vn 1.000000 0.000000 0.000000
vn 0.000000 -1.000000 0.000000
vn 0.000000 -1.000000 0.000000
vn 0.000000 -1.000000 0.000000
vn 0.000000 -1.000000 0.000000
vn 0.000000 1.000000 0.000000
vn 0.000000 1.000000 0.000000
vn 0.000000 1.000000 0.000000
vn 0.000000 1.000000 0.000000
vn -1.000000 0.000000 0.000000
vn -1.000000 0.000000 0.000000
vn -1.000000 0.000000 0.000000
vn -1.000000 0.000000 0.000000
vn 0.000000 -1.000000 0.000000
vn 0.000000 -1.000000 0.000000
vn 0.000000 -1.000000 0.000000
vn 0.000000 -1.000000 0.000000
vn 1.000000 0.000000 0.000000
vn 1.000000 0.000000 0.000000
vn 1.000000 0.000000 0.000000
vn 1.000000 0.000000 0.000000
vn 0.000000 0.000000 -1.000000
vn 0.000000 0.000000 -1.000000
vn 0.000000 0.000000 -1.000000
vn 0.000000 0.000000 -1.000000
vn 0.000000 0.000000 -1.000000
vn 0.000000 0.000000 -1.000000
vn 0.000000 0.000000 -1.000000
vn 0.000000 0.000000 -1.000000
vn 0.000000 0.000000 -1.000000
vn 0.000000 0.000000 -1.000000
vn 0.000000 0.000000 -1.000000
vn 0.000000 0.000000 -1.000000
vn 0.000000 0.000000 -1.000000
vn 0.000000 0.000000 -1.000000
vn 0.000000 0.000000 -1.000000
vn 0.000000 0.000000 -1.000000
vn 0.000000 0.000000 -1.000000
vn 0.000000 0.000000 -1.000000
vn -0.000000 0.000000 -1.000000
vn -0.000000 0.000000 -1.000000
vn 0.000000 0.000000 -1.000000
vn 0.000000 0.000000 -1.000000
vn -0.000000 0.000000 -1.000000
vn -0.000000 0.000000 -1.000000
vn 0.000000 0.000000 -1.000000
vn 0.000000 0.000000 -1.000000
vn 0.000000 0.000000 -1.000000
vn 0.000000 0.000000 -1.000000
vn 0.000000 0.000000 -1.000000
vn 0.000000 0.000000 -1.000000
vn -0.000000 0.000000 -1.000000
vn 0.000000 0.000000 -1.000000
vn 0.000000 0.000000 -1.000000
vn 0.000000 0.000000 -1.000000
vn 0.000000 0.000000 -1.000000
vn -0.000000 0.000000 -1.000000
vn 0.000000 0.000000 -1.000000
vn 0.000000 0.000000 -1.000000
vn -0.000000 0.000000 -1.000000
vn -0.000000 0.000000 -1.000000
vn -0.000000 0.000000 -1.000000
vn 0.000000 0.000000 -1.000000
vn -0.000000 0.000000 -1.000000
vn 0.000000 0.000000 -1.000000
vn 0.000000 0.000000 -1.000000
vn 0.000000 0.000000 -1.000000
vn 0.000000 0.000000 -1.000000
vn 0.000000 0.000000 -1.000000
vn 0.000000 0.000000 -1.000000
vn -0.000000 0.000000 -1.000000
vn 0.000000 0.000000 -1.000000
vn 0.000000 0.000000 -1.000000
vn 0.000000 0.000000 -1.000000
vn -0.000000 0.000000 -1.000000
vn -0.000000 0.000000 -1.000000
vn 0.000000 0.000000 -1.000000
vn 0.000000 0.000000 -1.000000
vn 0.000000 0.000000 -1.000000
vn 0.000000 0.000000 -1.000000
vn 0.000000 0.000000 -1.000000
vn -0.000000 0.000000 -1.000000
vn 0.000000 0.000000 -1.000000
vn 0.000000 0.000000 -1.000000
vn 0.000000 0.000000 -1.000000
vn -0.000000 0.000000 -1.000000
vn 0.000000 0.000000 -1.000000
vn 0.000000 0.000000 -1.000000
vn 0.000000 0.000000 -1.000000
vn -0.000000 0.000000 -1.000000
vn -0.000000 0.000000 -1.000000
vn 0.000000 0.000000 -1.000000
vn 0.000000 0.000000 -1.000000
vn -0.000000 0.000000 -1.000000
vn -0.000000 0.000000 -1.000000
vn 0.000000 0.000000 -1.000000
vn 0.000000 0.000000 -1.000000
vn 0.000000 0.000000 -1.000000
vn -0.000000 0.000000 -1.000000
vn 0.000000 0.000000 -1.000000
vn 0.000000 0.000000 -1.000000
vn 0.000000 0.000000 -1.000000
vn -0.000000 0.000000 -1.000000
vn 0.000000 1.000000 0.000000
vn 0.000000 1.000000 0.000000
vn 0.000000 1.000000 0.000000
vn 0.000000 1.000000 0.000000
vn 1.000000 0.000000 0.000000
vn 1.000000 0.000000 0.000000
vn 1.000000 0.000000 0.000000
vn 1.000000 0.000000 0.000000
vn 0.000000 -1.000000 0.000000
vn 0.000000 -1.000000 0.000000
vn 0.000000 -1.000000 0.000000
vn 0.000000 -1.000000 0.000000
vn -1.000000 0.000000 0.000000
vn -1.000000 0.000000 0.000000
vn -1.000000 0.000000 0.000000
vn -1.000000 0.000000 0.000000
vn 0.000000 0.000000 -1.000000
vn 0.000000 0.000000 -1.000000
vn 0.000000 0.000000 -1.000000
vn 0.000000 0.000000 -1.000000
vn 0.000000 0.000000 -1.000000
vn 0.000000 0.000000 -1.000000
vn 0.000000 0.000000 -1.000000
vn 0.000000 0.000000 -1.000000
vn 0.000000 0.000000 -1.000000
vn 0.000000 0.000000 -1.000000
vn 0.000000 0.000000 -1.000000
vn 0.000000 0.000000 -1.000000
vn 0.000000 0.000000 -1.000000
vn 0.000000 0.000000 -1.000000
vn 0.000000 0.000000 -1.000000
vn 0.000000 0.000000 -1.000000
vn 0.000000 0.000000 -1.000000
vn 0.000000 0.000000 -1.000000
vn 0.000000 0.000000 -1.000000
vn 0.000000 0.000000 -1.000000
vn 0.000000 0.000000 -1.000000
vn 0.000000 0.000000 -1.000000
vn 0.000000 0.000000 -1.000000
vn 0.000000 0.000000 -1.000000
vn 0.000000 0.000000 -1.000000
vn 0.000000 0.000000 -1.000000
vn 0.000000 0.000000 -1.000000
vn 0.000000 0.000000 -1.000000
vn 0.000000 0.000000 -1.000000
vn 0.000000 0.000000 -1.000000
vn 0.000000 0.000000 -1.000000
vn 0.000000 0.000000 -1.000000
vn 0.000000 1.000000 0.000000
vn 0.000000 1.000000 0.000000
vn 0.000000 1.000000 0.000000
vn 0.000000 1.000000 0.000000
vn 1.000000 0.000000 0.000000
vn 1.000000 0.000000 0.000000
vn 1.000000 0.000000 0.000000
vn 1.000000 0.000000 0.000000
vn 0.000000 -1.000000 0.000000
vn 0.000000 -1.000000 0.000000
vn 0.000000 -1.000000 0.000000
vn 0.000000 -1.000000 0.000000
vn -1.000000 0.000000 0.000000
vn -1.000000 0.000000 0.000000
vn -1.000000 0.000000 0.000000
vn -1.000000 0.000000 0.000000
vn 1.000000 0.000000 0.000000
vn 1.000000 0.000000 0.000000
vn 1.000000 0.000000 0.000000
vn 1.000000 0.000000 0.000000
vn 0.000000 1.000000 0.000000
vn 0.000000 1.000000 0.000000
vn -0.000000 1.000000 0.000000
vn -0.000000 1.000000 0.000000
vn -1.000000 0.000000 0.000000
vn -1.000000 0.000000 0.000000
vn -1.000000 -0.000000 0.000000
vn -1.000000 -0.000000 0.000000
vn 0.000000 -1.000000 0.000000
vn 0.000000 -1.000000 0.000000
vn -0.000000 -1.000000 0.000000
vn -0.000000 -1.000000 0.000000
vn 0.000000 0.000000 -1.000000
vn 0.000000 0.000000 -1.000000
vn 0.000000 0.000000 -1.000000
vn 0.000000 0.000000 -1.000000
vn 0.000000 0.000000 -1.000000
vn 0.000000 0.000000 -1.000000
vn 0.000000 0.000000 -1.000000
vn 0.000000 0.000000 -1.000000
vn 0.000000 0.000000 -1.000000
vn 0.000000 0.000000 -1.000000
vn 0.000000 0.000000 -1.000000
vn 0.000000 0.000000 -1.000000
vn 0.000000 0.000000 -1.000000
vn 0.000000 0.000000 -1.000000
vn 0.000000 0.000000 -1.000000
vn 0.000000 0.000000 -1.000000
s off
g object_11
usemtl initialShadingGroup
f 77/77/1 79/75/2 80/68/3 78/78/4
f 78/67/5 80/68/6 4/69/7 2/70/8
f 2/71/9 4/69/10 3/72/11 1/73/12
f 1/74/13 3/72/14 79/75/15 77/76/16
f 71/27/17 72/28/18 80/68/19
f 8/4/20 4/69/21 80/68/22 72/28/23
f 70/26/24 71/27/25 80/68/26
f 69/25/27 70/26/28 79/75/29
f 80/68/30 79/75/31 70/26/32
f 69/25/33 79/75/34 3/72/35 5/1/36
f 70/26/37 6/2/38 7/3/39 71/27/40
f 7/3/41 4/69/42 8/4/43
f 6/2/44 4/69/45 7/3/46
f 5/1/47 3/72/48 6/2/49
f 4/69/50 6/2/51 3/72/52
f 48/36/53 32/33/54 40/34/55 56/35/56
f 32/33/57 31/42/58 39/43/59 40/44/60
f 31/42/61 47/39/62 55/40/63 39/41/64
f 47/39/65 48/36/66 56/37/67 55/38/68
f 46/110/69 30/107/70 38/108/71 54/109/72
f 30/103/73 29/104/74 37/105/75 38/106/76
f 29/112/77 45/111/78 53/113/79 37/114/80
f 45/99/81 46/100/82 54/101/83 53/102/84
f 44/118/85 28/115/86 36/116/87 52/117/88
f 28/123/89 27/124/90 35/125/91 36/126/92
f 27/120/93 43/119/94 51/121/95 35/122/96
f 43/127/97 44/128/98 52/129/99 51/130/100
f 42/48/101 26/45/102 34/46/103 50/47/104
f 26/45/105 25/54/106 33/55/107 34/56/108
f 25/54/109 41/51/110 49/52/111 33/53/112
f 41/51/113 42/48/114 50/49/115 49/50/116
f 11/7/117 7/3/118 8/4/119 12/8/120
f 12/8/121 8/4/122 72/28/123 76/32/124
f 76/32/125 72/28/126 71/27/127 75/31/128
f 75/31/129 71/27/130 7/3/131 11/7/132
f 21/15/133 19/13/134 59/17/135 61/19/136
f 61/19/137 59/17/138 60/18/139 62/20/140
f 62/20/141 60/18/142 20/14/143 22/16/144
f 22/16/145 20/14/146 19/13/147 21/15/148
f 76/32/149 75/31/150 61/19/151 62/20/152
f 75/31/153 11/7/154 21/15/155 61/19/156
f 62/20/157 22/16/158 12/8/159 76/32/160
f 11/7/161 12/8/162 22/16/163 21/15/164
f 55/91/165 56/79/166 60/18/167
f 60/18/168 56/79/169 40/80/170 20/14/171
f 60/18/172 54/98/173 55/91/174
f 54/98/175 38/83/176 39/92/177 55/91/178
f 60/18/179 53/87/180 54/98/181
f 52/85/182 53/87/183 60/18/184
f 51/97/185 52/85/186 59/17/187
f 60/18/188 59/17/189 52/85/190
f 59/17/191 50/93/192 51/97/193
f 50/93/194 34/94/195 35/88/196 51/97/197
f 59/17/198 49/82/199 50/93/200
f 49/82/201 59/17/202 19/13/203 33/81/204
f 52/85/205 36/86/206 37/84/207 53/87/208
f 20/14/209 40/80/210 39/92/211
f 37/84/212 20/14/213 38/83/214
f 39/92/215 38/83/216 20/14/217
f 20/14/218 37/84/219 36/86/220 19/13/221
f 19/13/222 36/86/223 35/88/224
f 33/81/225 19/13/226 34/94/227
f 35/88/228 34/94/229 19/13/230
f 10/6/231 6/2/232 70/26/233 74/30/234
f 74/30/235 70/26/236 69/25/237 73/29/238
f 73/29/239 69/25/240 5/1/241 9/5/242
f 9/5/243 5/1/244 6/2/245 10/6/246
f 14/10/247 13/9/248 9/5/249 10/6/250
f 10/6/251 74/30/252 66/22/253 14/10/254
f 13/9/255 65/21/256 73/29/257 9/5/258
f 74/30/259 73/29/260 65/21/261 66/22/262
f 15/11/263 16/12/264 24/90/265 23/95/266
f 16/12/267 68/24/268 64/89/269 24/90/270
f 23/95/271 63/96/272 67/23/273 15/11/274
f 68/24/275 67/23/276 63/96/277 64/89/278
f 16/12/279 14/10/280 66/22/281 68/24/282
f 68/24/283 66/22/284 65/21/285 67/23/286
f 67/23/287 65/21/288 13/9/289 15/11/290
f 15/11/291 13/9/292 14/10/293 16/12/294
f 23/61/295 24/57/296 18/60/297 17/62/298
f 63/63/299 23/61/300 17/62/301 57/64/302
f 64/65/303 63/63/304 57/64/305 58/66/306
f 24/57/307 64/58/308 58/59/309 18/60/310
f 32/33/311 48/36/312 47/39/313 31/42/314
f 30/107/315 46/110/316 45/111/317 29/112/318
f 28/115/319 44/118/320 43/119/321 27/120/322
f 26/45/323 42/48/324 41/51/325 25/54/326
