# This file uses centimeters as units for non-parametric coordinates.

mtllib Door.mtl
g default
v -25.500000 0.000000 80.199997
v -25.500000 85.000000 80.199997
v -25.500000 0.000000 77.199997
v -25.500000 85.000000 77.199997
v -18.250000 30.000000 77.199997
v -18.250000 42.000000 77.199997
v -18.250000 57.000000 77.199997
v -18.250000 75.500000 77.199997
v -18.250000 30.000000 76.699997
v -18.250000 42.000000 76.699997
v -18.250000 57.000000 76.699997
v -18.250000 75.500000 76.699997
v -17.250000 31.000000 76.699997
v -17.250000 41.000000 76.699997
v -17.250000 31.000000 76.000000
v -17.250000 41.000000 76.000000
v -15.250000 33.000000 80.199997
v -15.250000 39.000000 80.199997
v -15.250000 60.000000 77.199997
v -15.250000 72.500000 77.199997
v -15.250000 60.000000 76.699997
v -15.250000 72.500000 76.699997
v -15.250000 33.000000 76.000000
v -15.250000 39.000000 76.000000
v -12.250000 63.000000 80.199997
v -12.250000 63.500000 80.199997
v -12.250000 65.000000 80.199997
v -12.250000 65.500000 80.199997
v -12.250000 67.000000 80.199997
v -12.250000 67.500000 80.199997
v -12.250000 69.000000 80.199997
v -12.250000 69.500000 80.199997
v -12.250000 63.000000 77.199997
v -12.250000 63.500000 77.199997
v -12.250000 65.000000 77.199997
v -12.250000 65.500000 77.199997
v -12.250000 67.000000 77.199997
v -12.250000 67.500000 77.199997
v -12.250000 69.000000 77.199997
v -12.250000 69.500000 77.199997
v -0.250000 63.000000 80.199997
v -0.250000 63.500000 80.199997
v -0.250000 65.000000 80.199997
v -0.250000 65.500000 80.199997
v -0.250000 67.000000 80.199997
v -0.250000 67.500000 80.199997
v -0.250000 69.000000 80.199997
v -0.250000 69.500000 80.199997
v -0.250000 63.000000 77.199997
v -0.250000 63.500000 77.199997
v -0.250000 65.000000 77.199997
v -0.250000 65.500000 77.199997
v -0.250000 67.000000 77.199997
v -0.250000 67.500000 77.199997
v -0.250000 69.000000 77.199997
v -0.250000 69.500000 77.199997
v 2.750000 33.000000 80.199997
v 2.750000 39.000000 80.199997
v 2.750000 60.000000 77.199997
v 2.750000 72.500000 77.199997
v 2.750000 60.000000 76.699997
v 2.750000 72.500000 76.699997
v 2.750000 33.000000 76.000000
v 2.750000 39.000000 76.000000
v 4.750000 31.000000 76.699997
v 4.750000 41.000000 76.699997
v 4.750000 31.000000 76.000000
v 4.750000 41.000000 76.000000
v 5.750000 30.000000 77.199997
v 5.750000 42.000000 77.199997
v 5.750000 57.000000 77.199997
v 5.750000 75.500000 77.199997
v 5.750000 30.000000 76.699997
v 5.750000 42.000000 76.699997
v 5.750000 57.000000 76.699997
v 5.750000 75.500000 76.699997
v 13.000000 0.000000 80.199997
v 13.000000 85.000000 80.199997
v 13.000000 0.000000 77.199997
v 13.000000 85.000000 77.199997
vt 0.000000 0.000000
vt 1.000000 0.000000
vt 1.000000 0.041667
vt 0.000000 0.041667
vt 0.000000 0.000000
vt 1.000000 0.000000
vt 1.000000 0.041667
vt 0.000000 0.041667
vt 0.000000 0.000000
vt 1.000000 0.000000
vt 1.000000 0.041667
vt 0.000000 0.041667
vt 0.000000 0.000000
vt 1.000000 0.000000
vt 1.000000 0.041667
vt 0.000000 0.041667
vn 1.000000 0.000000 0.000000
vn 1.000000 0.000000 0.000000
vn 1.000000 0.000000 0.000000
vn 1.000000 0.000000 0.000000
vn 0.000000 1.000000 0.000000
vn 0.000000 1.000000 0.000000
vn 0.000000 1.000000 0.000000
vn 0.000000 1.000000 0.000000
vn -1.000000 0.000000 0.000000
vn -1.000000 0.000000 0.000000
vn -1.000000 0.000000 0.000000
vn -1.000000 0.000000 0.000000
vn 0.000000 -1.000000 0.000000
vn 0.000000 -1.000000 0.000000
vn 0.000000 -1.000000 0.000000
vn 0.000000 -1.000000 0.000000
vn 0.000000 0.000000 -1.000000
vn 0.000000 0.000000 -1.000000
vn 0.000000 0.000000 -1.000000
vn 0.000000 0.000000 -1.000000
vn 0.000000 0.000000 -1.000000
vn 0.000000 0.000000 -1.000000
vn 0.000000 0.000000 -1.000000
vn 0.000000 0.000000 -1.000000
vn 0.000000 0.000000 -1.000000
vn 0.000000 0.000000 -1.000000
vn 0.000000 0.000000 -1.000000
vn 0.000000 0.000000 -1.000000
vn 0.000000 0.000000 -1.000000
vn 0.000000 0.000000 -1.000000
vn 0.000000 0.000000 -1.000000
vn 0.000000 0.000000 -1.000000
vn 0.000000 0.000000 -1.000000
vn 0.000000 0.000000 -1.000000
vn 0.000000 0.000000 -1.000000
vn 0.000000 0.000000 -1.000000
vn 0.000000 0.000000 -1.000000
vn 0.000000 0.000000 -1.000000
vn 0.000000 0.000000 -1.000000
vn 0.000000 0.000000 -1.000000
vn 0.000000 0.000000 -1.000000
vn 0.000000 0.000000 -1.000000
vn 0.000000 0.000000 -1.000000
vn 0.000000 0.000000 -1.000000
vn 0.000000 0.000000 -1.000000
vn 0.000000 0.000000 -1.000000
vn 0.000000 0.000000 -1.000000
vn 0.000000 0.000000 -1.000000
vn 0.000000 0.000000 -1.000000
vn 0.000000 0.000000 -1.000000
vn 0.000000 0.000000 -1.000000
vn 0.000000 0.000000 -1.000000
vn 0.000000 -1.000000 0.000000
vn 0.000000 -1.000000 0.000000
vn 0.000000 -1.000000 0.000000
vn 0.000000 -1.000000 0.000000
vn 1.000000 0.000000 0.000000
vn 1.000000 0.000000 0.000000
vn 1.000000 0.000000 0.000000
vn 1.000000 0.000000 0.000000
vn 0.000000 1.000000 0.000000
vn 0.000000 1.000000 0.000000
vn 0.000000 1.000000 0.000000
vn 0.000000 1.000000 0.000000
vn -1.000000 0.000000 0.000000
vn -1.000000 0.000000 0.000000
vn -1.000000 0.000000 0.000000
vn -1.000000 0.000000 0.000000
vn 0.000000 -1.000000 0.000000
vn 0.000000 -1.000000 0.000000
vn 0.000000 -1.000000 0.000000
vn 0.000000 -1.000000 0.000000
vn 1.000000 0.000000 0.000000
vn 1.000000 0.000000 0.000000
vn 1.000000 0.000000 0.000000
vn 1.000000 0.000000 0.000000
vn 0.000000 1.000000 0.000000
vn 0.000000 1.000000 0.000000
vn 0.000000 1.000000 0.000000
vn 0.000000 1.000000 0.000000
vn -1.000000 0.000000 0.000000
vn -1.000000 0.000000 0.000000
vn -1.000000 0.000000 0.000000
vn -1.000000 0.000000 0.000000
vn 0.000000 -1.000000 0.000000
vn 0.000000 -1.000000 0.000000
vn 0.000000 -1.000000 0.000000
vn 0.000000 -1.000000 0.000000
vn 1.000000 0.000000 0.000000
vn 1.000000 0.000000 0.000000
vn 1.000000 0.000000 0.000000
vn 1.000000 0.000000 0.000000
vn 0.000000 1.000000 0.000000
vn 0.000000 1.000000 0.000000
vn 0.000000 1.000000 0.000000
vn 0.000000 1.000000 0.000000
vn -1.000000 0.000000 0.000000
vn -1.000000 0.000000 0.000000
vn -1.000000 0.000000 0.000000
vn -1.000000 0.000000 0.000000
vn 0.000000 -1.000000 0.000000
vn 0.000000 -1.000000 0.000000
vn 0.000000 -1.000000 0.000000
vn 0.000000 -1.000000 0.000000
vn 1.000000 0.000000 0.000000
vn 1.000000 0.000000 0.000000
vn 1.000000 0.000000 0.000000
vn 1.000000 0.000000 0.000000
vn 0.000000 1.000000 0.000000
vn 0.000000 1.000000 0.000000
vn 0.000000 1.000000 0.000000
vn 0.000000 1.000000 0.000000
vn -1.000000 0.000000 0.000000
vn -1.000000 0.000000 0.000000
vn -1.000000 0.000000 0.000000
vn -1.000000 0.000000 0.000000
vn -1.000000 0.000000 0.000000
vn -1.000000 0.000000 0.000000
vn -1.000000 0.000000 0.000000
vn -1.000000 0.000000 0.000000
vn 0.000000 1.000000 0.000000
vn 0.000000 1.000000 0.000000
vn 0.000000 1.000000 0.000000
vn 0.000000 1.000000 0.000000
vn 1.000000 0.000000 0.000000
vn 1.000000 0.000000 0.000000
vn 1.000000 0.000000 0.000000
vn 1.000000 0.000000 0.000000
vn 0.000000 -1.000000 0.000000
vn 0.000000 -1.000000 0.000000
vn 0.000000 -1.000000 0.000000
vn 0.000000 -1.000000 0.000000
vn 0.000000 1.000000 0.000000
vn 0.000000 1.000000 0.000000
vn 0.000000 1.000000 0.000000
vn 0.000000 1.000000 0.000000
vn -1.000000 0.000000 0.000000
vn -1.000000 0.000000 0.000000
vn -1.000000 0.000000 0.000000
vn -1.000000 0.000000 0.000000
vn 0.000000 -1.000000 0.000000
vn 0.000000 -1.000000 0.000000
vn 0.000000 -1.000000 0.000000
vn 0.000000 -1.000000 0.000000
vn 1.000000 0.000000 0.000000
vn 1.000000 0.000000 0.000000
vn 1.000000 0.000000 0.000000
vn 1.000000 0.000000 0.000000
vn 0.000000 0.000000 -1.000000
vn 0.000000 0.000000 -1.000000
vn 0.000000 0.000000 -1.000000
vn 0.000000 0.000000 -1.000000
vn 0.000000 0.000000 -1.000000
vn 0.000000 0.000000 -1.000000
vn 0.000000 0.000000 -1.000000
vn 0.000000 0.000000 -1.000000
vn 0.000000 0.000000 -1.000000
vn 0.000000 0.000000 -1.000000
vn 0.000000 0.000000 -1.000000
vn 0.000000 0.000000 -1.000000
vn 0.000000 0.000000 -1.000000
vn 0.000000 0.000000 -1.000000
vn 0.000000 0.000000 -1.000000
vn 0.000000 0.000000 -1.000000
vn 0.000000 0.000000 -1.000000
vn 0.000000 0.000000 -1.000000
vn -0.000000 0.000000 -1.000000
vn -0.000000 0.000000 -1.000000
vn 0.000000 0.000000 -1.000000
vn 0.000000 0.000000 -1.000000
vn -0.000000 0.000000 -1.000000
vn -0.000000 0.000000 -1.000000
vn 0.000000 0.000000 -1.000000
vn 0.000000 0.000000 -1.000000
vn 0.000000 0.000000 -1.000000
vn 0.000000 0.000000 -1.000000
vn 0.000000 0.000000 -1.000000
vn 0.000000 0.000000 -1.000000
vn -0.000000 0.000000 -1.000000
vn 0.000000 0.000000 -1.000000
vn 0.000000 0.000000 -1.000000
vn 0.000000 0.000000 -1.000000
vn 0.000000 0.000000 -1.000000
vn -0.000000 0.000000 -1.000000
vn 0.000000 0.000000 -1.000000
vn 0.000000 0.000000 -1.000000
vn -0.000000 0.000000 -1.000000
vn -0.000000 0.000000 -1.000000
vn -0.000000 0.000000 -1.000000
vn 0.000000 0.000000 -1.000000
vn -0.000000 0.000000 -1.000000
vn 0.000000 0.000000 -1.000000
vn 0.000000 0.000000 -1.000000
vn 0.000000 0.000000 -1.000000
vn 0.000000 0.000000 -1.000000
vn 0.000000 0.000000 -1.000000
vn 0.000000 0.000000 -1.000000
vn -0.000000 0.000000 -1.000000
vn 0.000000 0.000000 -1.000000
vn 0.000000 0.000000 -1.000000
vn 0.000000 0.000000 -1.000000
vn -0.000000 0.000000 -1.000000
vn -0.000000 0.000000 -1.000000
vn 0.000000 0.000000 -1.000000
vn 0.000000 0.000000 -1.000000
vn 0.000000 0.000000 -1.000000
vn 0.000000 0.000000 -1.000000
vn 0.000000 0.000000 -1.000000
vn -0.000000 0.000000 -1.000000
vn 0.000000 0.000000 -1.000000
vn 0.000000 0.000000 -1.000000
vn 0.000000 0.000000 -1.000000
vn -0.000000 0.000000 -1.000000
vn 0.000000 0.000000 -1.000000
vn 0.000000 0.000000 -1.000000
vn 0.000000 0.000000 -1.000000
vn -0.000000 0.000000 -1.000000
vn -0.000000 0.000000 -1.000000
vn 0.000000 0.000000 -1.000000
vn 0.000000 0.000000 -1.000000
vn -0.000000 0.000000 -1.000000
vn -0.000000 0.000000 -1.000000
vn 0.000000 0.000000 -1.000000
vn 0.000000 0.000000 -1.000000
vn 0.000000 0.000000 -1.000000
vn -0.000000 0.000000 -1.000000
vn 0.000000 0.000000 -1.000000
vn 0.000000 0.000000 -1.000000
vn 0.000000 0.000000 -1.000000
vn -0.000000 0.000000 -1.000000
vn 0.000000 1.000000 0.000000
vn 0.000000 1.000000 0.000000
vn 0.000000 1.000000 0.000000
vn 0.000000 1.000000 0.000000
vn 1.000000 0.000000 0.000000
vn 1.000000 0.000000 0.000000
vn 1.000000 0.000000 0.000000
vn 1.000000 0.000000 0.000000
vn 0.000000 -1.000000 0.000000
vn 0.000000 -1.000000 0.000000
vn 0.000000 -1.000000 0.000000
vn 0.000000 -1.000000 0.000000
vn -1.000000 0.000000 0.000000
vn -1.000000 0.000000 0.000000
vn -1.000000 0.000000 0.000000
vn -1.000000 0.000000 0.000000
vn 0.000000 0.000000 -1.000000
vn 0.000000 0.000000 -1.000000
vn 0.000000 0.000000 -1.000000
vn 0.000000 0.000000 -1.000000
vn 0.000000 0.000000 -1.000000
vn 0.000000 0.000000 -1.000000
vn 0.000000 0.000000 -1.000000
vn 0.000000 0.000000 -1.000000
vn 0.000000 0.000000 -1.000000
vn 0.000000 0.000000 -1.000000
vn 0.000000 0.000000 -1.000000
vn 0.000000 0.000000 -1.000000
vn 0.000000 0.000000 -1.000000
vn 0.000000 0.000000 -1.000000
vn 0.000000 0.000000 -1.000000
vn 0.000000 0.000000 -1.000000
vn 0.000000 0.000000 -1.000000
vn 0.000000 0.000000 -1.000000
vn 0.000000 0.000000 -1.000000
vn 0.000000 0.000000 -1.000000
vn 0.000000 0.000000 -1.000000
vn 0.000000 0.000000 -1.000000
vn 0.000000 0.000000 -1.000000
vn 0.000000 0.000000 -1.000000
vn 0.000000 0.000000 -1.000000
vn 0.000000 0.000000 -1.000000
vn 0.000000 0.000000 -1.000000
vn 0.000000 0.000000 -1.000000
vn 0.000000 0.000000 -1.000000
vn 0.000000 0.000000 -1.000000
vn 0.000000 0.000000 -1.000000
vn 0.000000 0.000000 -1.000000
vn 0.000000 1.000000 0.000000
vn 0.000000 1.000000 0.000000
vn 0.000000 1.000000 0.000000
vn 0.000000 1.000000 0.000000
vn 1.000000 0.000000 0.000000
vn 1.000000 0.000000 0.000000
vn 1.000000 0.000000 0.000000
vn 1.000000 0.000000 0.000000
vn 0.000000 -1.000000 0.000000
vn 0.000000 -1.000000 0.000000
vn 0.000000 -1.000000 0.000000
vn 0.000000 -1.000000 0.000000
vn -1.000000 0.000000 0.000000
vn -1.000000 0.000000 0.000000
vn -1.000000 0.000000 0.000000
vn -1.000000 0.000000 0.000000
vn 1.000000 0.000000 0.000000
vn 1.000000 0.000000 0.000000
vn 1.000000 0.000000 0.000000
vn 1.000000 0.000000 0.000000
vn 0.000000 1.000000 0.000000
vn 0.000000 1.000000 0.000000
vn -0.000000 1.000000 0.000000
vn -0.000000 1.000000 0.000000
vn -1.000000 0.000000 0.000000
vn -1.000000 0.000000 0.000000
vn -1.000000 -0.000000 0.000000
vn -1.000000 -0.000000 0.000000
vn 0.000000 -1.000000 0.000000
vn 0.000000 -1.000000 0.000000
vn -0.000000 -1.000000 0.000000
vn -0.000000 -1.000000 0.000000
vn 0.000000 0.000000 -1.000000
vn 0.000000 0.000000 -1.000000
vn 0.000000 0.000000 -1.000000
vn 0.000000 0.000000 -1.000000
vn 0.000000 0.000000 -1.000000
vn 0.000000 0.000000 -1.000000
vn 0.000000 0.000000 -1.000000
vn 0.000000 0.000000 -1.000000
vn 0.000000 0.000000 -1.000000
vn 0.000000 0.000000 -1.000000
vn 0.000000 0.000000 -1.000000
vn 0.000000 0.000000 -1.000000
vn 0.000000 0.000000 -1.000000
vn 0.000000 0.000000 -1.000000
vn 0.000000 0.000000 -1.000000
vn 0.000000 0.000000 -1.000000
s off
g object_11
usemtl initialShadingGroup
f 77//1 79//2 80//3 78//4
f 78//5 80//6 4//7 2//8
f 2//9 4//10 3//11 1//12
f 1//13 3//14 79//15 77//16
f 71//17 72//18 80//19
f 8//20 4//21 80//22 72//23
f 70//24 71//25 80//26
f 69//27 70//28 79//29
f 80//30 79//31 70//32
f 69//33 79//34 3//35 5//36
f 70//37 6//38 7//39 71//40
f 7//41 4//42 8//43
f 6//44 4//45 7//46
f 5//47 3//48 6//49
f 4//50 6//51 3//52
f 48//53 32//54 40//55 56//56
f 32//57 31//58 39//59 40//60
f 31//61 47//62 55//63 39//64
f 47//65 48//66 56//67 55//68
f 46//69 30//70 38//71 54//72
f 30//73 29//74 37//75 38//76
f 29//77 45//78 53//79 37//80
f 45//81 46//82 54//83 53//84
f 44//85 28//86 36//87 52//88
f 28//89 27//90 35//91 36//92
f 27//93 43//94 51//95 35//96
f 43//97 44//98 52//99 51//100
f 42//101 26//102 34//103 50//104
f 26//105 25//106 33//107 34//108
f 25//109 41//110 49//111 33//112
f 41//113 42//114 50//115 49//116
f 11//117 7//118 8//119 12//120
f 12//121 8//122 72//123 76//124
f 76//125 72//126 71//127 75//128
f 75//129 71//130 7//131 11//132
f 21//133 19//134 59//135 61//136
f 61//137 59//138 60//139 62//140
f 62//141 60//142 20//143 22//144
f 22//145 20//146 19//147 21//148
f 76//149 75//150 61//151 62//152
f 75//153 11//154 21//155 61//156
f 62//157 22//158 12//159 76//160
f 11//161 12//162 22//163 21//164
f 55//165 56//166 60//167
f 60//168 56//169 40//170 20//171
f 60//172 54//173 55//174
f 54//175 38//176 39//177 55//178
f 60//179 53//180 54//181
f 52//182 53//183 60//184
f 51//185 52//186 59//187
f 60//188 59//189 52//190
f 59//191 50//192 51//193
f 50//194 34//195 35//196 51//197
f 59//198 49//199 50//200
f 49//201 59//202 19//203 33//204
f 52//205 36//206 37//207 53//208
f 20//209 40//210 39//211
f 37//212 20//213 38//214
f 39//215 38//216 20//217
f 20//218 37//219 36//220 19//221
f 19//222 36//223 35//224
f 33//225 19//226 34//227
f 35//228 34//229 19//230
f 10//231 6//232 70//233 74//234
f 74//235 70//236 69//237 73//238
f 73//239 69//240 5//241 9//242
f 9//243 5//244 6//245 10//246
f 14//247 13//248 9//249 10//250
f 10//251 74//252 66//253 14//254
f 13//255 65//256 73//257 9//258
f 74//259 73//260 65//261 66//262
f 15//263 16//264 24//265 23//266
f 16//267 68//268 64//269 24//270
f 23//271 63//272 67//273 15//274
f 68//275 67//276 63//277 64//278
f 16//279 14//280 66//281 68//282
f 68//283 66//284 65//285 67//286
f 67//287 65//288 13//289 15//290
f 15//291 13//292 14//293 16//294
f 23//295 24//296 18//297 17//298
f 63//299 23//300 17//301 57//302
f 64//303 63//304 57//305 58//306
f 24//307 64//308 58//309 18//310
f 32/1/311 48/2/312 47/3/313 31/4/314
f 30/5/315 46/6/316 45/7/317 29/8/318
f 28/9/319 44/10/320 43/11/321 27/12/322
f 26/13/323 42/14/324 41/15/325 25/16/326
